<?xml version="1.0" standalone="no"?>
<!DOCTYPE svg PUBLIC "-//W3C//DTD SVG 20010904//EN"
 "http://www.w3.org/TR/2001/REC-SVG-20010904/DTD/svg10.dtd">
<svg version="1.0" xmlns="http://www.w3.org/2000/svg"
 width="920.000000pt" height="1008.000000pt" viewBox="0 0 920.000000 1008.000000"
 preserveAspectRatio="xMidYMid meet">

<g transform="translate(0.000000,1008.000000) scale(0.100000,-0.100000)"
fill="#000000" stroke="none">
<path d="M4140 9819 c-711 -60 -1352 -470 -1724 -1102 -217 -369 -329 -781
-329 -1217 -1 -285 36 -510 125 -779 248 -747 845 -1316 1578 -1505 204 -52
280 -61 535 -61 259 0 361 13 575 70 515 139 992 500 1294 980 169 267 286
592 337 930 26 174 29 481 6 650 -135 981 -809 1757 -1718 1979 -211 51 -474
72 -679 55z m118 -121 c17 -17 15 -63 -3 -78 -8 -7 -25 -10 -40 -6 -33 8 -35
58 -3 80 27 19 31 19 46 4z m882 -58 c8 -5 11 -10 5 -10 -5 0 -17 5 -25 10 -8
5 -10 10 -5 10 6 0 17 -5 25 -10z m60 -25 c14 -8 21 -14 15 -14 -5 0 -21 6
-35 14 -14 8 -20 14 -15 14 6 0 21 -6 35 -14z m-805 -35 c4 -6 14 -52 24 -103
17 -88 18 -91 30 -62 56 139 78 168 107 144 22 -18 17 -37 -44 -153 -89 -171
-112 -171 -154 5 -27 109 -28 139 -6 167 13 15 34 16 43 2z m-133 -27 c3 -16
2 -77 -1 -137 -6 -114 -17 -137 -55 -123 -13 5 -16 24 -16 121 0 133 9 166 44
166 18 0 25 -6 28 -27z m-170 0 c38 -35 9 -80 -41 -62 -26 11 -51 6 -51 -10 0
-5 22 -17 50 -26 87 -29 106 -91 46 -151 -29 -29 -41 -34 -79 -34 -29 0 -53 7
-68 19 -21 17 -22 21 -11 46 11 25 16 26 50 20 55 -11 57 -11 61 0 2 6 -23 24
-55 40 -55 28 -59 33 -62 68 -3 32 2 43 31 72 28 28 43 35 73 35 21 0 46 -7
56 -17z m1248 -8 c17 -9 30 -18 30 -21 0 -4 -59 23 -69 32 -10 9 13 3 39 -11z
m-537 -43 c30 -31 45 -90 33 -136 -8 -32 -27 -33 -119 -7 -65 18 -67 18 -67 0
0 -32 44 -52 100 -46 41 5 50 3 55 -12 9 -28 -4 -49 -37 -60 -95 -33 -192 29
-190 122 3 143 138 226 225 139z m-1304 14 c16 -19 111 -304 111 -332 0 -27
-22 -46 -43 -38 -17 6 -23 20 -87 203 -39 113 -43 155 -16 173 16 11 22 10 35
-6z m351 -18 c19 -46 40 -169 34 -196 -9 -36 -32 -62 -71 -78 -89 -38 -140 -1
-167 119 -20 87 -13 130 21 135 23 3 36 -22 53 -110 12 -62 27 -81 62 -76 20
3 23 9 22 43 0 22 -4 66 -9 97 -4 31 -5 64 -2 72 9 24 46 19 57 -6z m1570 -4
c0 -2 -9 0 -20 6 -11 6 -20 13 -20 16 0 2 9 0 20 -6 11 -6 20 -13 20 -16z
m-244 -129 c11 -17 26 -25 44 -25 66 0 111 -81 90 -161 -6 -23 -28 -59 -49
-81 -32 -35 -45 -41 -89 -46 -47 -4 -54 -2 -82 26 l-30 31 -20 -39 c-22 -43
-50 -63 -74 -54 -9 3 -16 15 -16 27 0 23 143 291 173 325 26 28 33 28 53 -3z
m-1758 -48 c3 -24 -2 -29 -42 -47 -44 -18 -46 -21 -46 -59 0 -31 6 -44 26 -60
35 -28 55 -26 89 4 32 31 49 28 53 -7 4 -34 -47 -85 -95 -94 -50 -9 -101 19
-130 72 -20 35 -22 48 -14 89 11 58 36 94 82 118 47 24 73 19 77 -16z m2130
-47 c1 -18 -27 -64 -104 -170 -58 -80 -112 -149 -120 -153 -7 -4 -22 -3 -33 3
-16 8 -18 15 -11 38 8 28 149 231 199 285 31 34 65 33 69 -3z m-2378 -100 c19
-10 103 -132 114 -166 4 -14 0 -26 -14 -39 -25 -22 -36 -14 -92 68 -46 67 -61
76 -89 52 -24 -22 -19 -39 33 -122 40 -64 44 -95 11 -107 -22 -9 -36 6 -99
100 -44 66 -54 87 -48 109 4 18 15 28 35 32 16 3 29 11 29 18 0 19 58 65 81
65 11 0 29 -4 39 -10z m1345 -86 c577 -93 1068 -527 1255 -1109 54 -169 71
-272 77 -475 6 -198 -3 -305 -38 -445 -141 -567 -505 -982 -1026 -1171 -174
-63 -272 -78 -503 -78 -174 0 -220 3 -307 22 -624 136 -1094 620 -1240 1277
-34 153 -43 422 -19 583 34 227 97 418 202 606 77 138 150 233 280 362 350
351 832 507 1319 428z m-1654 -38 c15 -32 -4 -66 -36 -66 -33 0 -45 42 -20 70
24 27 43 25 56 -4z m2777 4 c21 -13 35 -31 39 -50 3 -19 12 -30 22 -30 22 0
41 -19 41 -42 0 -10 -39 -59 -87 -109 -93 -97 -125 -110 -131 -56 -2 19 -9 27
-23 27 -11 0 -34 13 -50 29 -50 51 -38 141 28 203 53 50 108 60 161 28z
m-2662 -143 c89 -106 99 -135 56 -152 -18 -7 -100 74 -149 147 -21 31 -23 39
-11 57 7 12 20 21 28 21 9 0 43 -33 76 -73z m2848 -52 c19 -19 12 -40 -38
-118 -20 -31 -36 -58 -36 -61 0 -3 32 6 72 20 39 13 80 24 90 24 23 0 36 -47
17 -65 -8 -8 -96 -37 -197 -65 -145 -41 -186 -49 -198 -39 -8 6 -14 17 -14 24
0 21 47 53 88 60 34 6 41 13 92 103 75 132 93 148 124 117z m-3042 -227 c72
-53 83 -69 68 -99 -16 -29 -39 -23 -104 26 -63 48 -75 52 -94 33 -27 -27 -13
-56 53 -107 66 -52 79 -77 50 -101 -12 -10 -22 -10 -38 -3 -39 19 -167 124
-167 138 0 7 9 24 20 37 11 12 30 43 43 68 23 47 58 72 86 63 9 -4 46 -28 83
-55z m3218 -53 c35 -18 64 -68 57 -101 -3 -16 1 -24 14 -27 31 -8 34 -36 8
-62 -13 -13 -71 -49 -129 -82 -86 -47 -113 -58 -152 -58 -36 0 -53 6 -73 25
-56 52 -80 139 -48 178 28 35 50 20 63 -44 13 -63 41 -89 85 -78 l26 6 -29 18
c-62 38 -62 127 0 187 55 53 121 67 178 38z m-3380 -203 c72 -40 86 -52 88
-75 3 -21 -1 -30 -15 -33 -14 -4 -18 -15 -18 -46 0 -33 -6 -45 -33 -69 -52
-47 -124 -37 -182 26 -31 33 -32 95 -2 152 11 21 25 50 31 66 6 15 18 27 28
27 10 0 56 -22 103 -48z m3535 -88 c10 -10 14 -26 11 -39 -4 -15 1 -28 14 -40
22 -20 26 -55 8 -73 -19 -19 -36 -14 -66 18 -34 35 -50 37 -120 10 -69 -26
-99 -26 -107 1 -10 32 17 52 130 98 55 22 103 40 107 40 4 1 14 -6 23 -15z
m51 -234 c41 -26 69 -94 60 -145 -19 -101 -153 -157 -240 -99 -33 21 -60 93
-52 138 19 101 145 159 232 106z m-3700 -143 c45 -11 49 -15 52 -44 4 -37 -11
-43 -73 -31 -69 13 -112 10 -119 -8 -10 -25 20 -51 67 -58 85 -13 107 -25 107
-56 0 -36 -22 -44 -81 -31 -64 15 -106 13 -113 -4 -13 -36 15 -54 109 -70 50
-8 65 -21 65 -52 0 -33 -19 -37 -98 -23 -126 22 -142 29 -142 54 0 12 3 26 7
29 3 4 8 30 9 58 1 28 10 61 19 75 12 18 13 29 5 44 -15 28 4 101 32 123 24
20 54 19 154 -6z m3792 -179 c36 -36 -1 -64 -96 -73 -43 -4 -83 -10 -89 -13
-16 -11 -21 -35 -11 -55 8 -15 22 -18 99 -16 89 1 119 -8 119 -37 0 -29 -30
-42 -114 -49 -109 -9 -148 3 -171 52 -37 77 -3 171 69 192 47 14 180 13 194
-1z m-3778 -263 c10 -12 10 -21 1 -42 -8 -18 -9 -29 -1 -37 15 -15 12 -89 -6
-114 -37 -54 -119 -67 -175 -29 -49 33 -63 66 -49 118 9 31 8 44 -1 55 -9 11
-9 21 -1 39 11 24 15 25 116 25 81 0 106 -3 116 -15z m3767 -61 c30 -8 39 -41
19 -63 -14 -15 -15 -23 -5 -44 24 -53 -12 -126 -70 -140 -13 -3 -62 -1 -110 4
-89 10 -116 25 -104 57 11 29 26 33 104 26 89 -7 119 4 119 42 0 31 -23 41
-112 49 -36 4 -74 12 -84 20 -16 11 -17 16 -6 40 l13 28 107 -7 c59 -3 117 -9
129 -12z m-97 -309 c65 -34 93 -123 56 -180 -13 -19 -14 -26 -4 -29 79 -23 93
-32 93 -61 0 -26 -4 -30 -32 -33 -36 -4 -297 63 -331 84 -17 11 -21 21 -16 37
4 12 11 24 15 25 5 2 9 24 9 48 0 79 47 123 133 124 26 0 61 -7 77 -15z
m-3602 -132 c3 -30 1 -33 -45 -46 -26 -8 -92 -25 -146 -38 -90 -21 -98 -22
-114 -7 -15 15 -15 19 0 41 12 19 40 31 129 55 62 17 127 30 143 29 26 -2 30
-6 33 -34z m106 -294 c15 -12 41 -49 58 -83 69 -137 199 -315 317 -434 420
-424 992 -597 1571 -477 446 92 873 403 1116 810 26 44 56 90 67 103 29 31 84
29 155 -7 117 -59 123 -99 37 -244 -366 -610 -1019 -987 -1710 -987 -671 0
-1294 344 -1678 925 -32 50 -79 130 -104 179 l-45 89 17 44 c14 37 26 48 73
73 68 35 91 37 126 9z m801 -677 c-3 -3 -11 0 -18 7 -9 10 -8 11 6 5 10 -3 15
-9 12 -12z m49 -31 c-2 -3 -12 3 -22 13 -16 17 -16 18 5 5 12 -7 20 -15 17
-18z m65 -27 c14 -12 -19 -1 -35 12 -18 14 -18 14 6 3 14 -6 27 -13 29 -15z
m81 -34 c8 -5 11 -10 5 -10 -5 0 -17 5 -25 10 -8 5 -10 10 -5 10 6 0 17 -5 25
-10z"/>
<path d="M4679 9454 c-16 -19 -3 -29 49 -39 43 -8 49 -2 28 30 -19 29 -57 33
-77 9z"/>
<path d="M5143 9248 c-31 -35 -37 -65 -18 -94 23 -35 63 -29 91 14 47 69 -18
140 -73 80z"/>
<path d="M4212 9020 c0 -14 2 -19 5 -12 2 6 2 18 0 25 -3 6 -5 1 -5 -13z"/>
<path d="M4171 9001 c-12 -8 -12 -14 -2 -39 18 -44 72 -56 109 -23 29 25 28
28 -15 29 -21 1 -39 6 -41 12 -2 5 -10 10 -18 10 -9 0 -12 5 -9 10 8 12 -5 13
-24 1z"/>
<path d="M4235 9000 c-3 -5 -1 -10 4 -10 6 0 11 5 11 10 0 6 -2 10 -4 10 -3 0
-8 -4 -11 -10z"/>
<path d="M4130 8894 c-326 -41 -604 -176 -830 -403 -347 -348 -495 -854 -395
-1347 141 -690 745 -1181 1415 -1151 149 7 261 27 378 69 514 181 870 627 943
1183 18 139 6 395 -24 525 -136 575 -575 1007 -1122 1105 -90 16 -299 27 -365
19z m726 -162 c-5 -4 -66 26 -66 33 0 3 16 -3 35 -12 19 -9 33 -18 31 -21z
m74 -38 c0 -2 -13 2 -30 11 -16 9 -30 18 -30 21 0 2 14 -2 30 -11 17 -9 30
-18 30 -21z m-1033 -469 c48 -20 71 -41 94 -87 41 -81 13 -195 -59 -243 -117
-77 -254 -7 -269 136 -4 46 -1 62 24 108 46 87 127 120 210 86z m1090 -330
c56 -34 87 -91 87 -165 1 -97 -67 -175 -161 -187 -166 -19 -264 184 -150 314
60 68 147 83 224 38z m-1242 -33 c-3 -3 -11 0 -18 7 -9 10 -8 11 6 5 10 -3 15
-9 12 -12z m-425 -344 c58 -17 110 -35 116 -40 6 -4 14 -48 18 -98 32 -419
331 -738 727 -775 142 -13 328 30 454 106 80 48 197 159 247 235 23 35 48 64
54 64 22 0 239 -71 249 -81 15 -15 -44 -122 -121 -217 -139 -174 -312 -289
-540 -358 -83 -26 -102 -28 -269 -28 -167 0 -186 2 -270 27 -189 57 -360 161
-488 296 -151 160 -241 337 -287 560 -27 131 -28 341 -2 341 4 0 54 -14 112
-32z m1495 14 c-3 -3 -11 0 -18 7 -9 10 -8 11 6 5 10 -3 15 -9 12 -12z m-1005
-1132 c8 -5 11 -10 5 -10 -5 0 -17 5 -25 10 -8 5 -10 10 -5 10 6 0 17 -5 25
-10z"/>
<path d="M4201 5908 c-1 -19 -21 -20 -33 -3 -4 5 -10 2 -14 -9 -19 -50 75 -98
117 -60 28 25 18 39 -24 36 -32 -3 -36 -1 -40 25 -2 15 -5 20 -6 11z"/>
<path d="M5525 8955 c-29 -28 -32 -66 -9 -90 34 -34 104 9 104 64 0 54 -53 69
-95 26z"/>
<path d="M5884 8482 c-33 -26 -39 -57 -15 -81 25 -25 42 -26 81 -6 57 30 48
105 -13 105 -18 0 -42 -8 -53 -18z"/>
<path d="M2512 8298 c-30 -30 -4 -80 50 -93 20 -5 32 -1 48 15 l21 21 -24 32
c-26 35 -73 47 -95 25z"/>
<path d="M6071 7959 c-30 -28 -25 -70 10 -83 48 -17 109 13 109 54 0 49 -77
68 -119 29z"/>
<path d="M2362 7388 c-13 -13 -16 -47 -4 -64 21 -33 93 -26 110 11 9 19 7 26
-12 44 -24 23 -75 28 -94 9z"/>
<path d="M6080 7023 c-34 -14 -41 -60 -12 -86 37 -33 122 -14 122 28 0 38 -69
75 -110 58z"/>
<path d="M2576 6611 c-10 -16 5 -41 24 -41 25 0 35 18 20 35 -14 17 -36 20
-44 6z"/>
<path d="M2680 6575 c-15 -18 -5 -35 20 -35 10 0 22 5 25 10 7 11 -12 40 -25
40 -4 0 -13 -7 -20 -15z"/>
<path d="M5847 6564 c-12 -12 -8 -42 6 -47 21 -8 39 8 35 29 -3 19 -29 30 -41
18z"/>
<path d="M5914 6515 c-8 -19 3 -35 26 -35 22 0 33 23 17 39 -15 15 -37 14 -43
-4z"/>
<path d="M5802 6468 c2 -15 10 -23 23 -23 13 0 21 8 23 23 3 18 -1 22 -23 22
-22 0 -26 -4 -23 -22z"/>
<path d="M2747 6463 c-15 -14 -7 -43 12 -43 24 0 33 13 25 34 -6 16 -25 21
-37 9z"/>
<path d="M2780 6381 c0 -23 19 -32 43 -19 15 7 16 12 6 24 -17 21 -49 18 -49
-5z"/>
<path d="M2620 6361 c0 -27 15 -34 40 -21 17 9 19 14 9 26 -17 21 -49 18 -49
-5z"/>
<path d="M5726 6364 c-8 -21 1 -34 24 -34 25 0 35 17 20 35 -16 20 -36 19 -44
-1z"/>
<path d="M2723 6344 c-8 -22 11 -37 36 -29 17 5 19 10 11 26 -13 23 -38 25
-47 3z"/>
<path d="M5797 6323 c-24 -23 12 -55 38 -33 12 10 13 16 4 26 -12 15 -31 18
-42 7z"/>
<path d="M5682 6288 c4 -30 43 -33 43 -3 0 13 -8 21 -23 23 -20 3 -23 0 -20
-20z"/>
<path d="M2867 6293 c-14 -14 -7 -43 11 -43 30 0 44 21 24 36 -20 15 -26 17
-35 7z"/>
<path d="M2917 6233 c-4 -3 -7 -15 -7 -25 0 -12 7 -18 24 -18 29 0 39 20 17
37 -19 14 -25 16 -34 6z"/>
<path d="M5814 6205 c-8 -20 4 -35 26 -35 25 0 35 17 20 35 -16 19 -39 19 -46
0z"/>
<path d="M3003 6129 c-15 -15 -5 -39 16 -39 29 0 43 21 23 36 -21 17 -25 17
-39 3z"/>
<path d="M5534 6129 c-3 -6 1 -18 10 -27 15 -15 17 -15 32 0 19 19 11 38 -16
38 -10 0 -22 -5 -26 -11z"/>
<path d="M5721 6091 c-17 -11 -10 -45 11 -49 9 -2 22 6 27 17 9 16 8 22 -7 30
-10 5 -24 6 -31 2z"/>
<path d="M2950 6060 c0 -24 26 -38 42 -22 8 8 8 15 -2 27 -18 21 -40 19 -40
-5z"/>
<path d="M5657 6016 c-3 -8 0 -19 7 -25 18 -15 48 -3 44 18 -4 21 -44 27 -51
7z"/>
<path d="M2900 6001 c0 -23 19 -32 43 -19 15 7 16 12 6 24 -17 21 -49 18 -49
-5z"/>
<path d="M3157 5993 c-4 -3 -7 -15 -7 -25 0 -13 7 -18 25 -18 27 0 33 18 13
38 -14 14 -22 15 -31 5z"/>
<path d="M5380 5984 c-11 -12 -10 -18 3 -32 16 -15 18 -15 34 0 13 14 14 20 3
32 -7 9 -16 16 -20 16 -4 0 -13 -7 -20 -16z"/>
<path d="M5497 5983 c-12 -12 -7 -41 7 -46 19 -7 40 18 32 38 -6 15 -28 20
-39 8z"/>
<path d="M3070 5851 c0 -24 13 -33 35 -25 23 9 14 38 -13 42 -16 3 -22 -2 -22
-17z"/>
<path d="M5204 5856 c-8 -21 3 -36 27 -36 15 0 20 6 17 22 -4 27 -35 37 -44
14z"/>
<path d="M5484 5859 c-3 -6 1 -18 9 -27 13 -12 19 -13 31 -3 8 7 12 19 9 27
-6 17 -39 19 -49 3z"/>
<path d="M5321 5841 c-19 -12 -6 -41 18 -41 26 0 36 17 21 35 -14 17 -20 18
-39 6z"/>
<path d="M3390 5825 c-15 -18 -5 -35 20 -35 10 0 22 5 25 10 7 11 -12 40 -25
40 -4 0 -13 -7 -20 -15z"/>
<path d="M3137 5823 c-4 -3 -7 -15 -7 -25 0 -15 6 -19 28 -16 15 2 27 7 27 12
0 13 -40 37 -48 29z"/>
<path d="M3284 5795 c-8 -20 4 -35 26 -35 28 0 36 21 15 37 -24 17 -34 17 -41
-2z"/>
<path d="M5084 5785 c-7 -17 3 -35 19 -35 23 0 38 17 31 33 -8 21 -43 22 -50
2z"/>
<path d="M5252 5778 c4 -30 43 -33 43 -3 0 13 -8 21 -23 23 -20 3 -23 0 -20
-20z"/>
<path d="M5019 5754 c-10 -12 -9 -18 4 -31 13 -13 19 -14 31 -3 21 17 20 27
-3 39 -14 8 -22 7 -32 -5z"/>
<path d="M3254 5725 c-12 -31 23 -48 45 -21 10 12 8 17 -8 25 -26 14 -31 14
-37 -4z"/>
<path d="M3570 5720 c0 -26 25 -36 45 -20 12 10 13 16 4 26 -18 22 -49 17 -49
-6z"/>
<path d="M5300 5724 c-11 -12 -11 -18 1 -30 13 -12 18 -12 34 0 16 12 17 16 6
30 -17 20 -25 20 -41 0z"/>
<path d="M5127 5723 c-24 -23 12 -55 38 -33 12 10 13 16 4 26 -12 15 -31 18
-42 7z"/>
<path d="M4892 5688 c2 -15 10 -23 23 -23 30 0 27 39 -3 43 -20 3 -23 0 -20
-20z"/>
<path d="M3477 5693 c-24 -23 12 -55 38 -33 12 10 13 16 4 26 -12 15 -31 18
-42 7z"/>
<path d="M3690 5671 c0 -27 15 -34 40 -21 17 9 19 14 9 26 -17 21 -49 18 -49
-5z"/>
<path d="M5057 5683 c-12 -12 -7 -31 9 -37 21 -8 45 11 37 30 -5 14 -34 19
-46 7z"/>
<path d="M4820 5661 c0 -27 19 -36 37 -18 18 18 9 37 -18 37 -12 0 -19 -7 -19
-19z"/>
<path d="M3903 5633 c-7 -3 -13 -13 -13 -23 0 -22 19 -30 42 -18 29 14 2 52
-29 41z"/>
<path d="M4924 5625 c-4 -9 -2 -21 4 -27 15 -15 44 -1 40 19 -4 23 -36 29 -44
8z"/>
<path d="M4616 5621 c-8 -13 4 -41 18 -41 22 0 37 17 30 33 -7 18 -39 23 -48
8z"/>
<path d="M3674 5605 c-12 -31 23 -48 45 -21 10 12 8 17 -8 25 -26 14 -31 14
-37 -4z"/>
<path d="M4410 5575 c0 -22 4 -26 23 -23 14 2 22 10 22 23 0 13 -8 21 -22 23
-19 3 -23 -1 -23 -23z"/>
<path d="M4200 5571 c0 -22 21 -33 40 -21 18 11 4 40 -20 40 -13 0 -20 -7 -20
-19z"/>
<path d="M4274 5579 c-3 -6 0 -17 8 -25 12 -12 17 -12 32 -1 11 8 16 19 12 25
-9 15 -43 15 -52 1z"/>
<path d="M4950 5541 c0 -24 13 -33 35 -25 23 9 14 38 -13 42 -16 3 -22 -2 -22
-17z"/>
<path d="M3657 5533 c-12 -12 -7 -31 10 -37 19 -8 48 17 39 33 -8 12 -39 15
-49 4z"/>
<path d="M3954 5528 c-10 -17 26 -40 42 -27 7 6 10 17 7 25 -6 17 -39 19 -49
2z"/>
<path d="M4883 5529 c-16 -16 -5 -39 17 -39 25 0 35 18 20 35 -15 18 -22 19
-37 4z"/>
<path d="M3730 5501 c0 -26 17 -36 35 -21 18 15 8 40 -16 40 -12 0 -19 -7 -19
-19z"/>
<path d="M4210 5510 c-18 -11 -4 -40 20 -40 13 0 20 7 20 19 0 22 -21 33 -40
21z"/>
<path d="M4427 5513 c-24 -23 12 -55 38 -33 12 10 13 16 4 26 -12 15 -31 18
-42 7z"/>
<path d="M4213 5429 c-16 -16 -5 -39 17 -39 25 0 35 18 20 35 -15 18 -22 19
-37 4z"/>
<path d="M4435 5430 c-4 -6 -1 -17 5 -25 9 -11 17 -12 32 -4 15 8 17 13 7 25
-14 16 -35 18 -44 4z"/>
<path d="M6360 6200 c-6 -11 -8 -20 -6 -20 3 0 10 9 16 20 6 11 8 20 6 20 -3
0 -10 -9 -16 -20z"/>
<path d="M6225 5993 c-56 -70 -67 -88 -26 -43 37 41 66 80 59 80 -2 0 -16 -17
-33 -37z"/>
<path d="M6124 5868 c-53 -60 -78 -93 -38 -53 49 50 79 85 72 85 -2 0 -18 -15
-34 -32z"/>
<path d="M5975 5709 c-72 -73 -205 -187 -297 -254 -61 -44 -88 -68 -55 -49 77
45 290 222 373 310 70 74 53 68 -21 -7z"/>
<path d="M5495 5340 c-44 -27 -126 -70 -183 -96 -56 -26 -100 -49 -98 -51 10
-11 347 164 361 188 8 12 10 13 -80 -41z"/>
<path d="M5155 5175 c-25 -12 -26 -14 -5 -9 28 7 60 23 45 23 -5 0 -23 -6 -40
-14z"/>
<path d="M5085 5150 c-13 -6 -15 -9 -5 -9 8 0 22 4 30 9 18 12 2 12 -25 0z"/>
<path d="M5025 5130 c-13 -6 -15 -9 -5 -9 8 0 22 4 30 9 18 12 2 12 -25 0z"/>
<path d="M4910 5099 c-164 -48 -302 -64 -560 -64 -210 1 -264 4 -375 23 -71
13 -137 25 -145 27 -13 4 -14 -270 -7 -2447 5 -1349 10 -2454 12 -2456 6 -6
759 -112 796 -112 20 0 41 6 46 13 6 6 47 91 93 187 l83 175 13 1005 c7 553
18 1394 23 1870 6 476 14 1068 17 1316 l7 451 46 16 c66 22 28 19 -49 -4z"/>
<path d="M3778 5093 c7 -3 16 -2 19 1 4 3 -2 6 -13 5 -11 0 -14 -3 -6 -6z"/>
</g>
</svg>
